HIERARCHY
ROOT hip
{
  OFFSET 0 0 0
  CHANNELS 6 Xposition Yposition Zposition Zrotation Yrotation Xrotation
  JOINT abdomen
  {
    OFFSET 0 20.6881 -0.73152
    CHANNELS 3 Zrotation Xrotation Yrotation
    JOINT chest
    {
      OFFSET 0 11.7043 -0.48768
      CHANNELS 3 Zrotation Xrotation Yrotation
      JOINT neck
      {
        OFFSET 0 22.1894 -2.19456
        CHANNELS 3 Zrotation Xrotation Yrotation
        JOINT head
        {
          OFFSET -0.24384 7.07133 1.2192
          CHANNELS 3 Zrotation Xrotation Yrotation
          JOINT leftEye
          {
            OFFSET 4.14528 8.04674 8.04672
            CHANNELS 3 Zrotation Xrotation Yrotation
            End Site
            {
              OFFSET 1 0 0
            }
          }
          JOINT rightEye
          {
            OFFSET -3.6576 8.04674 8.04672
            CHANNELS 3 Zrotation Xrotation Yrotation
            End Site
            {
              OFFSET 1 0 0
            }
          }
        }
      }
      JOINT rCollar
      {
        OFFSET -2.68224 19.2634 -4.8768
        CHANNELS 3 Zrotation Xrotation Yrotation
        JOINT rShldr
        {
          OFFSET -8.77824 -1.95073 1.46304
          CHANNELS 3 Zrotation Xrotation Yrotation
          JOINT rForeArm
          {
            OFFSET -28.1742 -1.7115 0.48768
            CHANNELS 3 Zrotation Xrotation Yrotation
            JOINT rHand
            {
              OFFSET -22.5879 0.773209 7.07136
              CHANNELS 3 Zrotation Xrotation Yrotation
              JOINT rThumb1
              {
                OFFSET -1.2192 -0.487915 3.41376
                CHANNELS 3 Zrotation Xrotation Yrotation
                JOINT rThumb2
                {
                  OFFSET -3.37035 -0.52449 3.41376
                  CHANNELS 3 Zrotation Xrotation Yrotation
                  End Site
                  {
                    OFFSET -1.78271 -1.18214 1.43049
                  }
                }
              }
              JOINT rIndex1
              {
                OFFSET -7.75947 0.938293 5.60832
                CHANNELS 3 Zrotation Xrotation Yrotation
                JOINT rIndex2
                {
                  OFFSET -2.54057 -0.884171 1.56538
                  CHANNELS 3 Zrotation Xrotation Yrotation
                  End Site
                  {
                    OFFSET -1.62519 -0.234802 1.16502
                  }
                }
              }
              JOINT rMid1
              {
                OFFSET -8.24714 1.18213 3.41376
                CHANNELS 3 Zrotation Xrotation Yrotation
                JOINT rMid2
                {
                  OFFSET -3.10165 -0.590103 1.0647
                  CHANNELS 3 Zrotation Xrotation Yrotation
                  End Site
                  {
                    OFFSET -2.48547 -0.328903 0.83742
                  }
                }
              }
              JOINT rRing1
              {
                OFFSET -8.82822 0.546677 1.51678
                CHANNELS 3 Zrotation Xrotation Yrotation
                JOINT rRing2
                {
                  OFFSET -2.60934 -0.819778 -0.0198488
                  CHANNELS 3 Zrotation Xrotation Yrotation
                  End Site
                  {
                    OFFSET -2.33842 -0.294052 0.168128
                  }
                }
              }
              JOINT rPinky1
              {
                OFFSET -8.27202 -0.0477905 -0.4584
                CHANNELS 3 Zrotation Xrotation Yrotation
                JOINT rPinky2
                {
                  OFFSET -1.82734 -0.647385 -0.700984
                  CHANNELS 3 Zrotation Xrotation Yrotation
                  End Site
                  {
                    OFFSET -1.69225 -0.51767 -0.607171
                  }
                }
              }
            }
          }
        }
      }
      JOINT lCollar
      {
        OFFSET 2.68224 19.2634 -4.8768
        CHANNELS 3 Zrotation Xrotation Yrotation
        JOINT lShldr
        {
          OFFSET 8.77824 -1.95073 1.46304
          CHANNELS 3 Zrotation Xrotation Yrotation
          JOINT lForeArm
          {
            OFFSET 28.1742 -1.7115 0.48768
            CHANNELS 3 Zrotation Xrotation Yrotation
            JOINT lHand
            {
              OFFSET 22.5879 0.773209 7.07136
              CHANNELS 3 Zrotation Xrotation Yrotation
              JOINT lThumb1
              {
                OFFSET 1.2192 -0.487915 3.41376
                CHANNELS 3 Zrotation Xrotation Yrotation
                JOINT lThumb2
                {
                  OFFSET 3.37035 -0.52449 3.41376
                  CHANNELS 3 Zrotation Xrotation Yrotation
                  End Site
                  {
                    OFFSET 1.78271 -1.18214 1.43049
                  }
                }
              }
              JOINT lIndex1
              {
                OFFSET 7.75947 0.938293 5.60832
                CHANNELS 3 Zrotation Xrotation Yrotation
                JOINT lIndex2
                {
                  OFFSET 2.54057 -0.884171 1.56538
                  CHANNELS 3 Zrotation Xrotation Yrotation
                  End Site
                  {
                    OFFSET 1.62519 -0.234802 1.16502
                  }
                }
              }
              JOINT lMid1
              {
                OFFSET 8.24714 1.18213 3.41376
                CHANNELS 3 Zrotation Xrotation Yrotation
                JOINT lMid2
                {
                  OFFSET 3.10165 -0.590103 1.0647
                  CHANNELS 3 Zrotation Xrotation Yrotation
                  End Site
                  {
                    OFFSET 2.48547 -0.328903 0.83742
                  }
                }
              }
              JOINT lRing1
              {
                OFFSET 8.82822 0.546677 1.51678
                CHANNELS 3 Zrotation Xrotation Yrotation
                JOINT lRing2
                {
                  OFFSET 2.60934 -0.819778 -0.0198488
                  CHANNELS 3 Zrotation Xrotation Yrotation
                  End Site
                  {
                    OFFSET 2.33842 -0.294052 0.168128
                  }
                }
              }
              JOINT lPinky1
              {
                OFFSET 8.27202 -0.0477905 -0.4584
                CHANNELS 3 Zrotation Xrotation Yrotation
                JOINT lPinky2
                {
                  OFFSET 1.82734 -0.647385 -0.700984
                  CHANNELS 3 Zrotation Xrotation Yrotation
                  End Site
                  {
                    OFFSET 1.69225 -0.51767 -0.607171
                  }
                }
              }
            }
          }
        }
      }
    }
  }
  JOINT rButtock
  {
    OFFSET -8.77824 4.35084 1.2192
    CHANNELS 3 Zrotation Xrotation Yrotation
    JOINT rThigh
    {
      OFFSET 0 -1.70687 -2.19456
      CHANNELS 3 Zrotation Xrotation Yrotation
      JOINT rShin
      {
        OFFSET 0 -36.8199 0.73152
        CHANNELS 3 Zrotation Xrotation Yrotation
        JOINT rFoot
        {
          OFFSET 0.73152 -45.1104 -5.12064
          CHANNELS 3 Zrotation Xrotation Yrotation
          End Site
          {
            OFFSET -1.1221 -3.69964 12.103
          }
        }
      }
    }
  }
  JOINT lButtock
  {
    OFFSET 8.77824 4.35084 1.2192
    CHANNELS 3 Zrotation Xrotation Yrotation
    JOINT lThigh
    {
      OFFSET 0 -1.70687 -2.19456
      CHANNELS 3 Zrotation Xrotation Yrotation
      JOINT lShin
      {
        OFFSET 0 -36.8199 0.73152
        CHANNELS 3 Zrotation Xrotation Yrotation
        JOINT lFoot
        {
          OFFSET -0.73152 -45.1104 -5.12064
          CHANNELS 3 Zrotation Xrotation Yrotation
          End Site
          {
            OFFSET 1.1221 -3.69964 12.103
          }
        }
      }
    }
  }
}
MOTION
Frames:	8
Frame Time:	0.00833333
6.30972 83.8693 -9.77014 -2.2192 4.3871 -1.7051 2.21862 2.72272 -2.89012 4.19901 -4.06435 -0.548538 4.49064 -2.7269 0.84776 -8.11611 7.5985 0.768008 -0.0 0.0 0.0 -0.0 0.0 0.0 -5.15999e-14 2.38553e-14 -4.29872e-14 75.3235 9.15982 -12.2587 -13.6235 -6.65471 24.7997 -0.0273696 -4.71723 -0.664481 3.89979e-10 -1.98422e-10 -3.14932e-10 6.74975e-10 -3.43942e-10 -5.43763e-10 3.89981e-10 -1.98419e-10 -3.14942e-10 7.73091 5.47488 0.417314 3.89977e-10 -1.98421e-10 -3.14932e-10 2.90554 0.965183 0.102902 3.89985e-10 -1.9842e-10 -3.14938e-10 10.2786 0.731801 0.0259123 3.89976e-10 -1.98422e-10 -3.14932e-10 2.22167 -0.733487 -0.20892 -5.16721e-14 2.38526e-14 -4.32357e-14 -81.1229 23.7635 12.8559 16.6543 -9.30953 -31.0662 0.0627439 -7.12917 1.00719 2.21464e-10 7.58025e-10 -9.03818e-11 3.83173e-10 1.31318e-09 -1.56619e-10 2.2146e-10 7.5803e-10 -9.03723e-11 -7.73091 5.47488 -0.417314 2.21467e-10 7.58029e-10 -9.03882e-11 -2.90554 0.965183 -0.102902 2.21462e-10 7.58029e-10 -9.03842e-11 -10.2786 0.731801 -0.0259123 2.21463e-10 7.58029e-10 -9.03882e-11 -2.22167 -0.733487 0.20892 -2.03217e-16 0.0 -3.88251e-19 6.7422 -21.1877 1.0981 -0.187675 28.9338 0.109066 -2.05714 -0.176669 -17.028 2.03217e-16 0.0 3.88251e-19 5.11069 -5.57087 -1.88892 0.687744 52.4454 -1.11749 5.21654 31.7093 -10.6502
6.1583 83.8503 -9.00138 -2.6689 4.321 -1.8451 2.84962 2.87543 -2.81405 4.09684 -4.07752 -0.518926 4.48595 -2.7256 0.839401 -8.16343 7.58408 0.755402 -0.0 0.0 0.0 -0.0 0.0 0.0 -5.49008e-14 4.5484e-14 -6.30924e-14 75.2695 9.31729 -12.1343 -13.6715 -6.69238 24.8958 -0.028338 -4.79862 -0.676001 3.52573e-10 -2.44731e-11 -5.36072e-10 6.10585e-10 -4.33065e-11 -9.26411e-10 3.52574e-10 -2.44706e-11 -5.36083e-10 7.73091 5.47488 0.417314 3.52571e-10 -2.44719e-11 -5.36073e-10 2.90554 0.965183 0.102902 3.5258e-10 -2.44708e-11 -5.36077e-10 10.2786 0.731801 0.0259123 3.5257e-10 -2.44722e-11 -5.36071e-10 2.22167 -0.733487 -0.20892 -5.49539e-14 4.54845e-14 -6.33195e-14 -81.1141 23.7194 12.7108 16.6477 -9.30311 -31.0522 0.0622553 -7.10164 1.00326 2.37001e-10 8.66601e-10 8.04425e-11 4.09304e-10 1.49958e-09 1.39486e-10 2.36997e-10 8.66607e-10 8.04511e-11 -7.73091 5.47488 -0.417314 2.37004e-10 8.66606e-10 8.04347e-11 -2.90554 0.965183 -0.102902 2.36998e-10 8.66606e-10 8.04396e-11 -10.2786 0.731801 -0.0259123 2.37001e-10 8.66607e-10 8.04334e-11 -2.22167 -0.733487 0.20892 -2.03217e-16 0.0 -3.88251e-19 7.38684 -20.5159 1.09428 -0.18411 28.8303 0.104698 -2.15609 -0.526067 -17.1441 2.03217e-16 0.0 3.88251e-19 5.82157 -7.14957 -1.44378 0.792136 54.7924 -1.21581 4.76075 30.8905 -9.97988
6.01391 83.836 -8.24166 -3.0879 4.2506 -1.9712 3.43906 3.02617 -2.73093 4.00887 -4.07703 -0.487757 4.49886 -2.72279 0.836682 -8.24234 7.56303 0.749934 -0.0 0.0 0.0 -0.0 0.0 0.0 -5.3775e-14 8.38351e-14 -8.51916e-14 75.192 9.43095 -11.9705 -13.7079 -6.72111 24.9685 -0.0291325 -4.86555 -0.685475 2.77585e-10 2.93768e-10 -8.69465e-10 4.8162e-10 5.06698e-10 -1.50328e-09 2.77582e-10 2.9377e-10 -8.6948e-10 7.73091 5.47488 0.417314 2.77582e-10 2.93769e-10 -8.69469e-10 2.90554 0.965183 0.102902 2.77591e-10 2.9377e-10 -8.6947e-10 10.2786 0.731801 0.0259123 2.7758e-10 2.9377e-10 -8.69462e-10 2.22167 -0.733487 -0.20892 -5.38022e-14 8.38397e-14 -8.53811e-14 -81.1014 23.6131 12.5202 16.6265 -9.28246 -31.0069 0.0616786 -7.06895 0.998597 1.50926e-10 9.26131e-10 3.63104e-10 2.59107e-10 1.60007e-09 6.28987e-10 1.50925e-10 9.26136e-10 3.63112e-10 -7.73091 5.47488 -0.417314 1.50931e-10 9.26134e-10 3.63095e-10 -2.90554 0.965183 -0.102902 1.50923e-10 9.26136e-10 3.63101e-10 -10.2786 0.731801 -0.0259123 1.50928e-10 9.26137e-10 3.63091e-10 -2.22167 -0.733487 0.20892 -2.03217e-16 0.0 -3.88251e-19 7.97315 -19.8489 1.05494 -0.180042 28.7153 0.102642 -2.25649 -0.897805 -17.1951 2.03217e-16 0.0 3.88251e-19 6.50613 -8.741 -0.958123 0.910098 57.1068 -1.31899 4.016 29.1678 -8.87508
5.87366 83.8272 -7.48907 -3.4863 4.1701 -2.0824 3.97901 3.16797 -2.64224 3.93445 -4.072 -0.455551 4.51746 -2.71257 0.83499 -8.3273 7.53842 0.745505 -0.0 0.0 0.0 -0.0 0.0 0.0 -4.80769e-14 1.1923e-13 -9.75815e-14 75.1051 9.5105 -11.7896 -13.7373 -6.74446 25.0272 -0.0297843 -4.92026 -0.693219 1.62994e-10 6.38132e-10 -1.14712e-09 2.84104e-10 1.10201e-09 -1.9838e-09 1.62989e-10 6.38134e-10 -1.14714e-09 7.73091 5.47488 0.417314 1.62992e-10 6.38135e-10 -1.14712e-09 2.90554 0.965183 0.102902 1.63e-10 6.38135e-10 -1.14712e-09 10.2786 0.731801 0.0259123 1.62988e-10 6.38136e-10 -1.14711e-09 2.22167 -0.733487 -0.20892 -4.80876e-14 1.19237e-13 -9.7738e-14 -81.0897 23.4704 12.3082 16.5937 -9.25062 -30.9365 0.0611387 -7.03809 0.994194 1.03189e-11 8.91372e-10 6.31375e-10 1.46665e-11 1.53751e-09 1.09335e-09 1.0319e-11 8.91376e-10 6.31382e-10 -7.73091 5.47488 -0.417314 1.03241e-11 8.91375e-10 6.31365e-10 -2.90554 0.965183 -0.102902 1.03148e-11 8.91377e-10 6.31372e-10 -10.2786 0.731801 -0.0259123 1.0323e-11 8.91379e-10 6.31358e-10 -2.22167 -0.733487 0.20892 -2.03217e-16 0.0 -3.88251e-19 8.50217 -19.1805 0.98527 -0.175406 28.5781 0.102505 -2.35374 -1.27374 -17.201 2.03217e-16 0.0 3.88251e-19 7.16021 -10.3232 -0.453018 1.03805 59.2998 -1.4286 3.21954 27.0197 -7.59604
5.74326 83.8233 -6.74588 -3.843 4.0917 -2.1698 4.46164 3.29385 -2.5495 3.87297 -4.07157 -0.422826 4.52983 -2.68902 0.829714 -8.3928 7.51329 0.736015 -0.0 0.0 0.0 -0.0 0.0 0.0 -3.76607e-14 1.3199e-13 -8.85586e-14 75.0232 9.56564 -11.6138 -13.7644 -6.766 25.0814 -0.0303292 -4.96498 -0.699552 6.78317e-12 8.90452e-10 -1.20103e-09 1.40628e-11 1.53857e-09 -2.07739e-09 6.77776e-12 8.90454e-10 -1.20105e-09 7.73091 5.47488 0.417314 6.78059e-12 8.90455e-10 -1.20104e-09 2.90554 0.965183 0.102902 6.78851e-12 8.90456e-10 -1.20104e-09 10.2786 0.731801 0.0259123 6.77597e-12 8.90456e-10 -1.20103e-09 2.22167 -0.733487 -0.20892 -3.76812e-14 1.31997e-13 -8.87077e-14 -81.0832 23.3175 12.0986 16.5523 -9.21058 -30.8472 0.0607568 -7.0161 0.991056 -1.37744e-10 7.17085e-10 7.59027e-10 -2.41934e-10 1.23476e-09 1.31402e-09 -1.37744e-10 7.17088e-10 7.59033e-10 -7.73091 5.47488 -0.417314 -1.37739e-10 7.17086e-10 7.59017e-10 -2.90554 0.965183 -0.102902 -1.37749e-10 7.17089e-10 7.59023e-10 -10.2786 0.731801 -0.0259123 -1.37739e-10 7.17091e-10 7.59008e-10 -2.22167 -0.733487 0.20892 -2.03217e-16 0.0 -3.88251e-19 8.97467 -18.5049 0.890378 -0.170138 28.4083 0.103896 -2.44374 -1.6356 -17.1816 2.03217e-16 0.0 3.88251e-19 7.77652 -11.8744 0.0500624 1.17134 61.2825 -1.54494 2.53891 24.9391 -6.35767
5.61536 83.8273 -6.00677 -4.1813 4.0024 -2.2469 4.88111 3.39926 -2.45013 3.82872 -4.07818 -0.38869 4.53093 -2.64308 0.817723 -8.43342 7.476 0.716674 -0.0 0.0 0.0 -0.0 0.0 0.0 -1.72833e-14 1.10822e-13 -4.30058e-14 74.9443 9.58266 -11.4452 -13.7878 -6.78448 25.1282 -0.0306446 -4.98988 -0.703079 -2.58483e-10 1.05457e-09 -9.03249e-10 -4.45429e-10 1.82334e-09 -1.56282e-09 -2.58486e-10 1.05457e-09 -9.03265e-10 7.73091 5.47488 0.417314 -2.58486e-10 1.05458e-09 -9.03255e-10 2.90554 0.965183 0.102902 -2.58479e-10 1.05458e-09 -9.03253e-10 10.2786 0.731801 0.0259123 -2.58492e-10 1.05458e-09 -9.03244e-10 2.22167 -0.733487 -0.20892 -1.73599e-14 1.10822e-13 -4.31918e-14 -81.0832 23.1351 11.8846 16.4953 -9.15584 -30.7247 0.0605871 -7.00629 0.989656 -3.33667e-10 3.0609e-10 6.69216e-10 -5.80087e-10 5.24452e-10 1.15765e-09 -3.33668e-10 3.06093e-10 6.6922e-10 -7.73091 5.47488 -0.417314 -3.33662e-10 3.06091e-10 6.69207e-10 -2.90554 0.965183 -0.102902 -3.33672e-10 3.06094e-10 6.69212e-10 -10.2786 0.731801 -0.0259123 -3.33663e-10 3.06095e-10 6.69197e-10 -2.22167 -0.733487 0.20892 -2.03217e-16 0.0 -3.88251e-19 9.38363 -17.8232 0.759327 -0.164016 28.197 0.106565 -2.52289 -1.97861 -17.1258 2.03217e-16 0.0 3.88251e-19 8.35163 -13.4027 0.558319 1.30986 63.0512 -1.66732 1.95309 22.9499 -5.10014
5.5048 83.847 -5.2691 -4.4637 3.93 -2.3123 5.24293 3.48881 -2.34433 3.80054 -4.08697 -0.353209 4.52777 -2.58039 0.802113 -8.46234 7.42906 0.691793 -0.0 0.0 0.0 -0.0 0.0 0.0 1.12428e-14 6.82379e-14 2.88362e-14 74.8634 9.56168 -11.2733 -13.8058 -6.79878 25.1643 -0.0307412 -4.99724 -0.704121 -6.09429e-10 1.18173e-09 -3.71088e-10 -1.05363e-09 2.04469e-09 -6.4297e-10 -6.09427e-10 1.18173e-09 -3.71099e-10 7.73091 5.47488 0.417314 -6.09432e-10 1.18173e-09 -3.71091e-10 2.90554 0.965183 0.102902 -6.09427e-10 1.18173e-09 -3.71092e-10 10.2786 0.731801 0.0259123 -6.09439e-10 1.18173e-09 -3.71085e-10 2.22167 -0.733487 -0.20892 1.10778e-14 6.82272e-14 2.85846e-14 -81.0881 22.9177 11.6584 16.4235 -9.08702 -30.571 0.0605547 -7.00443 0.989392 -5.84904e-10 -2.89111e-10 4.43658e-10 -1.01314e-09 -5.03342e-10 7.65815e-10 -5.84909e-10 -2.89108e-10 4.4366e-10 -7.73091 5.47488 -0.417314 -5.84902e-10 -2.89112e-10 4.43651e-10 -2.90554 0.965183 -0.102902 -5.8491e-10 -2.89109e-10 4.43654e-10 -10.2786 0.731801 -0.0259123 -5.84902e-10 -2.89108e-10 4.43641e-10 -2.22167 -0.733487 0.20892 -2.03217e-16 0.0 -3.88251e-19 9.73327 -17.1377 0.594123 -0.157108 27.952 0.110754 -2.59297 -2.31289 -17.0283 2.03217e-16 0.0 3.88251e-19 8.89078 -14.9143 1.08102 1.45359 64.6466 -1.79383 1.42663 20.8212 -3.7563
5.40748 83.8736 -4.53221 -4.695 3.8583 -2.3706 5.55631 3.56924 -2.23769 3.77971 -4.09606 -0.31834 4.52646 -2.51713 0.787607 -8.48187 7.39681 0.668921 -0.0 0.0 0.0 -0.0 0.0 0.0 3.74799e-14 2.02614e-14 1.00635e-13 74.7894 9.53333 -11.1012 -13.8231 -6.81255 25.1989 -0.0308652 -5.00748 -0.705572 -9.11859e-10 1.22485e-09 1.95532e-10 -1.57801e-09 2.12068e-09 3.36541e-10 -9.11851e-10 1.22484e-09 1.95526e-10 7.73091 5.47488 0.417314 -9.11861e-10 1.22485e-09 1.9553e-10 2.90554 0.965183 0.102902 -9.11858e-10 1.22485e-09 1.95527e-10 10.2786 0.731801 0.0259123 -9.11869e-10 1.22485e-09 1.95533e-10 2.22167 -0.733487 -0.20892 3.72293e-14 2.02401e-14 1.00319e-13 -81.0971 22.7129 11.4413 16.3513 -9.01798 -30.4173 0.0605853 -7.00623 0.989648 -7.94956e-10 -8.89244e-10 1.93964e-10 -1.37496e-09 -1.5396e-09 3.32393e-10 -7.94965e-10 -8.89242e-10 1.93965e-10 -7.73091 5.47488 -0.417314 -7.94956e-10 -8.89246e-10 1.93959e-10 -2.90554 0.965183 -0.102902 -7.94964e-10 -8.89244e-10 1.9396e-10 -10.2786 0.731801 -0.0259123 -7.94956e-10 -8.89244e-10 1.93949e-10 -2.22167 -0.733487 0.20892 -2.03217e-16 0.0 -3.88251e-19 10.0402 -16.4436 0.418938 -0.149768 27.6871 0.116802 -2.65878 -2.64213 -16.9178 2.03217e-16 0.0 3.88251e-19 9.39486 -16.385 1.59878 1.59564 66.0468 -1.92054 1.01613 18.6813 -2.48159
